<svg width="1600" height="901" viewBox="0 0 1600 901" fill="none" xmlns="http://www.w3.org/2000/svg">
<path d="M850 0.00120163H1600V900.001H850V0.00120163Z" fill="#DCE0E3"/>
<path d="M0 0.00120163H750V900.001H0V0.00120163Z" fill="#DCE0E3"/>
<path d="M687.5 400L625 1.75873e-05H750L687.5 400Z" fill="#24597A"/>
<path d="M686.747 400L625 2.59876e-05H687.5L686.747 400Z" fill="#26648B"/>
<line x1="727.5" y1="23" x2="647.5" y2="23" stroke="white" stroke-width="6"/>
<path d="M562.5 400L500 1.75873e-05H625L562.5 400Z" fill="#24597A"/>
<path d="M561.747 400L500 2.59876e-05H562.5L561.747 400Z" fill="#26648B"/>
<line x1="602.5" y1="23" x2="522.5" y2="23" stroke="white" stroke-width="6"/>
<path d="M437.5 400L375 1.75873e-05H500L437.5 400Z" fill="#24597A"/>
<path d="M436.747 400L375 2.59876e-05H437.5L436.747 400Z" fill="#26648B"/>
<line x1="477.5" y1="23" x2="397.5" y2="23" stroke="white" stroke-width="6"/>
<path d="M312.5 400L250 1.75873e-05H375L312.5 400Z" fill="#24597A"/>
<path d="M311.747 400L250 2.59876e-05H312.5L311.747 400Z" fill="#26648B"/>
<line x1="352.5" y1="23" x2="272.5" y2="23" stroke="white" stroke-width="6"/>
<path d="M187.5 400L125 1.75873e-05H250L187.5 400Z" fill="#24597A"/>
<path d="M186.747 400L125 2.59876e-05H187.5L186.747 400Z" fill="#26648B"/>
<line x1="227.5" y1="23" x2="147.5" y2="23" stroke="white" stroke-width="6"/>
<path d="M62.5 400L1.16178e-05 1.75873e-05H125L62.5 400Z" fill="#24597A"/>
<path d="M61.747 400L2.65241e-06 2.59876e-05H62.5L61.747 400Z" fill="#26648B"/>
<line x1="102.5" y1="23" x2="22.5" y2="23" stroke="white" stroke-width="6"/>
<rect x="750" y="0.00120163" width="100" height="900" fill="#2F4159"/>
<line y1="-2" x2="900.002" y2="-2" transform="matrix(-0.00110936 0.999999 -0.999998 -0.00190376 800 0.00120163)" stroke="#FFFAFB" stroke-width="4"/>
<path d="M62.5 500L125 900H0L62.5 500Z" fill="#26648B"/>
<path d="M63.253 500L125 900H62.5L63.253 500Z" fill="#161818" fill-opacity="0.15"/>
<line x1="22.5" y1="877" x2="102.5" y2="877" stroke="white" stroke-width="6"/>
<path d="M187.5 500L250 900H125L187.5 500Z" fill="#26648B"/>
<path d="M188.253 500L250 900H187.5L188.253 500Z" fill="#161818" fill-opacity="0.15"/>
<line x1="147.5" y1="877" x2="227.5" y2="877" stroke="white" stroke-width="6"/>
<path d="M312.5 500L375 900H250L312.5 500Z" fill="#26648B"/>
<path d="M313.253 500L375 900H312.5L313.253 500Z" fill="#161818" fill-opacity="0.15"/>
<line x1="272.5" y1="877" x2="352.5" y2="877" stroke="white" stroke-width="6"/>
<path d="M437.5 500L500 900H375L437.5 500Z" fill="#26648B"/>
<path d="M438.253 500L500 900H437.5L438.253 500Z" fill="#161818" fill-opacity="0.15"/>
<line x1="397.5" y1="877" x2="477.5" y2="877" stroke="white" stroke-width="6"/>
<path d="M562.5 500L625 900H500L562.5 500Z" fill="#26648B"/>
<path d="M563.253 500L625 900H562.5L563.253 500Z" fill="#161818" fill-opacity="0.15"/>
<line x1="522.5" y1="877" x2="602.5" y2="877" stroke="white" stroke-width="6"/>
<path d="M687.5 500L750 900H625L687.5 500Z" fill="#26648B"/>
<path d="M688.253 500L750 900H687.5L688.253 500Z" fill="#161818" fill-opacity="0.15"/>
<line x1="647.5" y1="877" x2="727.5" y2="877" stroke="white" stroke-width="6"/>
<path d="M912.5 500L975 900H850L912.5 500Z" fill="#26648B"/>
<path d="M913.253 500L975 900H912.5L913.253 500Z" fill="#161818" fill-opacity="0.15"/>
<line x1="872.5" y1="877" x2="952.5" y2="877" stroke="white" stroke-width="6"/>
<path d="M1037.5 500L1100 900H975L1037.5 500Z" fill="#26648B"/>
<path d="M1038.25 500L1100 900H1037.5L1038.25 500Z" fill="#161818" fill-opacity="0.15"/>
<line x1="997.5" y1="877" x2="1077.5" y2="877" stroke="white" stroke-width="6"/>
<path d="M1162.5 500L1225 900H1100L1162.5 500Z" fill="#26648B"/>
<path d="M1163.25 500L1225 900H1162.5L1163.25 500Z" fill="#161818" fill-opacity="0.15"/>
<line x1="1122.5" y1="877" x2="1202.5" y2="877" stroke="white" stroke-width="6"/>
<path d="M1287.5 500L1350 900H1225L1287.5 500Z" fill="#26648B"/>
<path d="M1288.25 500L1350 900H1287.5L1288.25 500Z" fill="#161818" fill-opacity="0.15"/>
<line x1="1247.5" y1="877" x2="1327.5" y2="877" stroke="white" stroke-width="6"/>
<path d="M1412.5 500L1475 900H1350L1412.5 500Z" fill="#26648B"/>
<path d="M1413.25 500L1475 900H1412.5L1413.25 500Z" fill="#161818" fill-opacity="0.15"/>
<line x1="1372.5" y1="877" x2="1452.5" y2="877" stroke="white" stroke-width="6"/>
<path d="M1537.5 500L1600 900H1475L1537.5 500Z" fill="#26648B"/>
<path d="M1538.25 500L1600 900H1537.5L1538.25 500Z" fill="#161818" fill-opacity="0.15"/>
<line x1="1497.5" y1="877" x2="1577.5" y2="877" stroke="white" stroke-width="6"/>
<path d="M1537.5 400L1475 -0.000287589H1600L1537.5 400Z" fill="#24597A"/>
<path d="M1536.75 400L1475 -0.000279188H1537.5L1536.75 400Z" fill="#26648B"/>
<line x1="1577.5" y1="22.9997" x2="1497.5" y2="22.9997" stroke="white" stroke-width="6"/>
<path d="M1412.5 400L1350 -4.34479e-05H1475L1412.5 400Z" fill="#24597A"/>
<path d="M1411.75 400L1350 -3.50475e-05H1412.5L1411.75 400Z" fill="#26648B"/>
<line x1="1452.5" y1="23" x2="1372.5" y2="23" stroke="white" stroke-width="6"/>
<path d="M1287.5 400L1225 -1.29303e-05H1350L1287.5 400Z" fill="#24597A"/>
<path d="M1286.75 400L1225 -4.52995e-06H1287.5L1286.75 400Z" fill="#26648B"/>
<line x1="1327.5" y1="23" x2="1247.5" y2="23" stroke="white" stroke-width="6"/>
<path d="M1162.5 400L1100 -1.29303e-05H1225L1162.5 400Z" fill="#24597A"/>
<path d="M1161.75 400L1100 -4.52995e-06H1162.5L1161.75 400Z" fill="#26648B"/>
<line x1="1202.5" y1="23" x2="1122.5" y2="23" stroke="white" stroke-width="6"/>
<path d="M1037.5 400L975 1.75873e-05H1100L1037.5 400Z" fill="#24597A"/>
<path d="M1036.75 400L975 2.59876e-05H1037.5L1036.75 400Z" fill="#26648B"/>
<line x1="1077.5" y1="23" x2="997.5" y2="23" stroke="white" stroke-width="6"/>
<path d="M912.5 400L850 -1.29303e-05H975L912.5 400Z" fill="#24597A"/>
<path d="M911.747 400L850 -4.52995e-06H912.5L911.747 400Z" fill="#26648B"/>
<line x1="952.5" y1="23" x2="872.5" y2="23" stroke="white" stroke-width="6"/>
</svg>