<svg width="2098" height="1181" viewBox="0 0 2098 1181" fill="none" xmlns="http://www.w3.org/2000/svg">
<path d="M1114.15 0.322266H2097.23V1180.01H1114.15V0.322266Z" fill="#DCE0E3"/>
<path d="M0 0.322266H983.076V1180.01H0V0.322266Z" fill="#DCE0E3"/>
<rect x="983" width="131" height="1180" fill="#2F4159"/>
<line x1="1049.5" y1="0.00145326" x2="1047.79" y2="1180" stroke="#FFFAFB" stroke-width="2"/>
<path d="M2015 906L2097 1180H1933L2015 906Z" fill="#26648B"/>
<path d="M1688 906L1770 1180H1606L1688 906Z" fill="#26648B"/>
<path d="M1360 906L1442 1180H1278L1360 906Z" fill="#26648B"/>
<path d="M901 906L983 1180H819L901 906Z" fill="#26648B"/>
<path d="M573.5 906L614.25 1043L655 1180H492L573.5 906Z" fill="#26648B"/>
<path d="M246 906L328 1180H164L246 906Z" fill="#26648B"/>
<path d="M1853.92 274L1772 0H1935.85L1853.92 274Z" fill="#26648B"/>
<path d="M1523.92 274L1442 0H1605.85L1523.92 274Z" fill="#26648B"/>
<path d="M1196 274L1114 0H1278L1196 274Z" fill="#26648B"/>
<path d="M737 274L655 0H819L737 274Z" fill="#26648B"/>
<path d="M410 274L328 0H492L410 274Z" fill="#26648B"/>
<path d="M82 274L0 0H164L82 274Z" fill="#26648B"/>
<path d="M1851.5 906L1933 1180H1770L1851.5 906Z" fill="#26648B"/>
<path d="M1524 906L1606 1180H1442L1524 906Z" fill="#26648B"/>
<path d="M1197.5 906L1281 1180H1114L1197.5 906Z" fill="#26648B"/>
<path d="M737 906L819 1180H655L737 906Z" fill="#26648B"/>
<path d="M410 906L492 1180H328L410 906Z" fill="#26648B"/>
<path d="M82 906L164 1180H0L82 906Z" fill="#26648B"/>
<path d="M2014.92 274L1933 0H2096.85L2014.92 274Z" fill="#26648B"/>
<path d="M1687.92 274L1606 0H1769.85L1687.92 274Z" fill="#26648B"/>
<path d="M1359.92 274L1278 0H1441.85L1359.92 274Z" fill="#26648B"/>
<path d="M901 274L819 0H983L901 274Z" fill="#26648B"/>
<path d="M573.5 274L492 0H655L573.5 274Z" fill="#26648B"/>
<path d="M244 274L164 0H324L244 274Z" fill="#26648B"/>
</svg>