<svg width="2098" height="1186" viewBox="0 0 2098 1186" fill="none" xmlns="http://www.w3.org/2000/svg">
<path d="M1114.15 1.32211H2097.23V1181.01H1114.15V1.32211Z" fill="#FBF2ED"/>
<path d="M0 1.32211H983.076V1181.01H0V1.32211Z" fill="#FBF2ED"/>
<line x1="1048.71" y1="0.998312" x2="1050.71" y2="1186" stroke="#948F8F" stroke-width="2"/>
<path d="M2015.3 722.245L2097.23 1181.01H1933.38L2015.3 722.245Z" fill="#F7E7D8"/>
<path d="M1687.61 722.245L1769.54 1181.01H1605.69L1687.61 722.245Z" fill="#F7E7D8"/>
<path d="M1359.92 722.245L1441.85 1181.01H1278L1359.92 722.245Z" fill="#F7E7D8"/>
<path d="M901.152 722.245L983.075 1181.01H819.229L901.152 722.245Z" fill="#F7E7D8"/>
<path d="M573.457 722.245L655.38 1181.01H491.534L573.457 722.245Z" fill="#F7E7D8"/>
<path d="M245.769 722.245L327.692 1181.01H163.846L245.769 722.245Z" fill="#F7E7D8"/>
<path d="M1851.46 460.091L1769.54 1.32213H1933.38L1851.46 460.091Z" fill="#F7E7D8"/>
<path d="M1523.77 460.091L1441.84 1.32213H1605.69L1523.77 460.091Z" fill="#F7E7D8"/>
<path d="M1196.08 460.091L1114.15 1.32213H1278L1196.08 460.091Z" fill="#F7E7D8"/>
<path d="M737.306 460.091L655.382 1.32213H819.229L737.306 460.091Z" fill="#F7E7D8"/>
<path d="M409.611 460.091L327.688 1.32219H491.534L409.611 460.091Z" fill="#F7E7D8"/>
<path d="M81.9227 460.091L-0.000324978 1.32219H163.846L81.9227 460.091Z" fill="#F7E7D8"/>
<path d="M1851.46 722.245L1933.38 1181.01H1769.54L1851.46 722.245Z" fill="#F7E7D8"/>
<path d="M1523.76 722.245L1605.69 1181.01H1441.84L1523.76 722.245Z" fill="#F7E7D8"/>
<path d="M1196.08 722.245L1278 1181.01H1114.15L1196.08 722.245Z" fill="#F7E7D8"/>
<path d="M737.303 722.245L819.226 1181.01H655.38L737.303 722.245Z" fill="#F7E7D8"/>
<path d="M409.617 722.245L491.54 1181.01H327.694L409.617 722.245Z" fill="#F7E7D8"/>
<path d="M81.923 722.245L163.846 1181.01H0L81.923 722.245Z" fill="#F7E7D8"/>
<path d="M2015.31 460.091L1933.38 1.32205H2097.23L2015.31 460.091Z" fill="#F7E7D8"/>
<path d="M1687.61 460.091L1605.69 1.32205H1769.54L1687.61 460.091Z" fill="#F7E7D8"/>
<path d="M1359.92 460.091L1278 1.32205H1441.84L1359.92 460.091Z" fill="#F7E7D8"/>
<path d="M901.152 460.091L819.229 1.32217H983.075L901.152 460.091Z" fill="#F7E7D8"/>
<path d="M573.462 460.091L491.539 1.32218H655.385L573.462 460.091Z" fill="#F7E7D8"/>
<path d="M245.771 460.091L163.848 1.32217H327.694L245.771 460.091Z" fill="#F7E7D8"/>
</svg>