<svg width="2098" height="1182" viewBox="0 0 2098 1182" fill="none" xmlns="http://www.w3.org/2000/svg">
<path d="M1114.15 0.322266H2097.23V1180.01H1114.15V0.322266Z" fill="#D5E6E9"/>
<path d="M0 0.322266H983.076V1180.01H0V0.322266Z" fill="#D5E6E9"/>
<rect x="983" width="131" height="1180" fill="#2F4159"/>
<path d="M1048.71 1L1047 1181" stroke="#8CA9BC" stroke-opacity="0.57" stroke-width="42"/>
<path d="M1688 565L1770 1180H1606L1688 565Z" fill="#8CA9BC"/>
<path d="M1360 937L1442 1180H1278L1360 937Z" fill="#8CA9BC"/>
<path d="M901 895L983 1180H819L901 895Z" fill="#8CA9BC"/>
<path d="M573.5 825L614.25 1043L655 1180H492L573.5 825Z" fill="#8CA9BC"/>
<path d="M246 719L328 1180H164L246 719Z" fill="#8CA9BC"/>
<path d="M1523.92 413L1442 0H1605.85L1523.92 413Z" fill="#8CA9BC"/>
<path d="M1196 325L1114 0H1278L1196 325Z" fill="#8CA9BC"/>
<path d="M737 185L655 0L819 0L737 185Z" fill="#8CA9BC"/>
<path d="M410 441L328 0H492L410 441Z" fill="#8CA9BC"/>
<path d="M82 419L0 0H164L82 419Z" fill="#8CA9BC"/>
<path d="M1195 821L1281 1180H1114L1195 821Z" fill="#8CA9BC"/>
<path d="M2012 821L2098 1180H1931L2012 821Z" fill="#8CA9BC"/>
<path d="M1850 879L1936 1180H1769L1850 879Z" fill="#8CA9BC"/>
<path d="M1522.5 799L1606 1180H1439L1522.5 799Z" fill="#8CA9BC"/>
<path d="M737 731L819 1180H655L737 731Z" fill="#8CA9BC"/>
<path d="M410 906L492 1180H328L410 906Z" fill="#8CA9BC"/>
<path d="M82 795L164 1180H0L82 795Z" fill="#8CA9BC"/>
<path d="M1687.92 315L1606 3.05176e-05H1769.85L1687.92 315Z" fill="#8CA9BC"/>
<path d="M1359.92 193L1278 6.10352e-05L1441.85 6.10352e-05L1359.92 193Z" fill="#8CA9BC"/>
<path d="M901 439L819 0H983L901 439Z" fill="#8CA9BC"/>
<path d="M573.5 261L492 0H655L573.5 261Z" fill="#8CA9BC"/>
<path d="M244 295L164 0H324L244 295Z" fill="#8CA9BC"/>
<path d="M1850.92 269L1769 0.000457764H1932.85L1850.92 269Z" fill="#8CA9BC"/>
<path d="M2014.92 399L1933 0.000183105H2096.85L2014.92 399Z" fill="#8CA9BC"/>
</svg>