<svg width="2177" height="1255" viewBox="0 0 2177 1255" fill="none" xmlns="http://www.w3.org/2000/svg">
<rect width="2177" height="1255" fill="#2F4159"/>
<path d="M1156.15 30.3223H2139.23V1210.01H1156.15V30.3223Z" fill="#D5E6E9"/>
<path d="M42 30.3223H1025.08V1210.01H42V30.3223Z" fill="#D5E6E9"/>
<rect x="1025" y="30" width="131" height="1180" fill="#2F4159"/>
<path d="M1090.71 31L1089 1211" stroke="#8CA9BC" stroke-opacity="0.57" stroke-width="42"/>
<path d="M1731 796L1814 1210H1648L1731 796Z" fill="#8CA9BC"/>
<path d="M1402 967L1484 1210H1320L1402 967Z" fill="#8CA9BC"/>
<path d="M943 925L1025 1210H861L943 925Z" fill="#8CA9BC"/>
<path d="M615.5 855L697 1210H534L615.5 855Z" fill="#8CA9BC"/>
<path d="M288 749L370 1210H206L288 749Z" fill="#8CA9BC"/>
<path d="M1565.92 443L1484 30H1647.85L1565.92 443Z" fill="#8CA9BC"/>
<path d="M1238 355L1156 30H1320L1238 355Z" fill="#8CA9BC"/>
<path d="M779 215L697 30L861 30L779 215Z" fill="#8CA9BC"/>
<path d="M452 471L370 30H534L452 471Z" fill="#8CA9BC"/>
<path d="M124 449L42 30H206L124 449Z" fill="#8CA9BC"/>
<path d="M1237 851L1323 1210H1156L1237 851Z" fill="#8CA9BC"/>
<path d="M2054 851L2140 1210H1973L2054 851Z" fill="#8CA9BC"/>
<path d="M1892 909L1978 1210H1811L1892 909Z" fill="#8CA9BC"/>
<path d="M1564.5 829L1648 1210H1481L1564.5 829Z" fill="#8CA9BC"/>
<path d="M779 761L861 1210H697L779 761Z" fill="#8CA9BC"/>
<path d="M452 936L534 1210H370L452 936Z" fill="#8CA9BC"/>
<path d="M124 825L206 1210H42L124 825Z" fill="#8CA9BC"/>
<path d="M1729.92 345L1648 30H1811.85L1729.92 345Z" fill="#8CA9BC"/>
<path d="M1401.92 223L1320 30.0001L1483.85 30.0001L1401.92 223Z" fill="#8CA9BC"/>
<path d="M943 469L861 30H1025L943 469Z" fill="#8CA9BC"/>
<path d="M615.5 291L534 30H697L615.5 291Z" fill="#8CA9BC"/>
<path d="M286 325L206 30H366L286 325Z" fill="#8CA9BC"/>
<path d="M1892.92 299L1811 30.0005H1974.85L1892.92 299Z" fill="#8CA9BC"/>
<path d="M2056.92 429L1975 30.0002H2138.85L2056.92 429Z" fill="#8CA9BC"/>
<path d="M1564.43 828.657L1592.93 958.657L1577 944L1568.5 961L1556 941L1536.93 954.157L1564.43 828.657Z" fill="#FFFEFE" fill-opacity="0.84"/>
<path d="M124 825.5L150 946.5L139.5 936.5L135 948L123.5 935L114 962L108 940.5L97.5 949L124 825.5Z" fill="#FFFEFE" fill-opacity="0.84"/>
<path d="M288.248 749L317.5 914.5L298 880L291.5 914.5L279 890L262 914.5V895.571L288.248 749Z" fill="#FFFEFE" fill-opacity="0.84"/>
<path d="M124 449L91.5 283L113.5 317.5L120 283L133 294L141 287L146.5 303L155 291L124 449Z" fill="#FFFEFE" fill-opacity="0.84"/>
<path d="M452 471L421 304L437 316L448.5 303L459 327L478 303L479.5 323L452 471Z" fill="#FFFEFE" fill-opacity="0.84"/>
<path d="M2057 430L2030 301.5L2045 319.5L2053.5 294.5L2063 319.5L2075 299L2081 316L2057 430Z" fill="#FFFEFE" fill-opacity="0.84"/>
<path d="M1237.22 851.337L1266.94 976.837L1248.94 965.5L1239.86 985.337L1229.73 965.5L1215.94 985.337L1211 965.5L1237.22 851.337Z" fill="#FFFEFE" fill-opacity="0.84"/>
<path d="M451.603 936L477.5 1018.6L473 1030.88L460.866 1018.6L450.344 1033L444.281 998.423L427 1018.6L451.603 936Z" fill="#FFFEFE" fill-opacity="0.84"/>
<path d="M615.5 291L588.5 204.5L594 195.118L606.134 207.402L616.656 193L625.5 214.5L641 209.5L615.5 291Z" fill="#FFFEFE" fill-opacity="0.84"/>
<path d="M1238 355L1216 268L1222 259L1230 275.5L1240.16 257L1245 268.5L1255.5 259L1259.5 270L1238 355Z" fill="#FFFEFE" fill-opacity="0.84"/>
<path d="M1730 345.098L1708.5 262.598L1713.5 252.098L1720.63 261.5L1731.16 247.098L1740 268.598L1750.5 266L1730 345.098Z" fill="#FFFEFE" fill-opacity="0.84"/>
<path d="M778.897 215L752 154.5L760.5 128.5L781 156L805.5 128.5L809.5 146.5L778.897 215Z" fill="#FFFEFE" fill-opacity="0.84"/>
<path d="M1892.9 298.977L1874.5 238.5L1875.5 217L1885.5 238.5L1893 220.5L1900.5 233.5L1912.5 221L1914.5 229L1892.9 298.977Z" fill="#FFFEFE" fill-opacity="0.84"/>
<path d="M1402 967L1430 1050L1423 1061.88L1410.87 1049.6L1400.34 1064L1394.28 1029.42L1376.5 1042.5L1402 967Z" fill="#FFFEFE" fill-opacity="0.84"/>
<path d="M943 926L962 991L957 1014L943 991L931 1006L924 991L943 926Z" fill="#FFFEFE" fill-opacity="0.84"/>
<path d="M286 325L268 258.5L272 237L286 260L298 245L304 258.5L286 325Z" fill="#FFFEFE" fill-opacity="0.84"/>
<path d="M1402 223L1377.5 165.5L1382 147.5L1392 155L1404.5 140.5L1411.5 163.5L1422.5 145.5L1426.5 165.5L1402 223Z" fill="#FFFEFE" fill-opacity="0.84"/>
<path d="M615.5 855L636 943.5L626.5 930L620 940.5L609.5 925.5L596 940.5L615.5 855Z" fill="#FFFEFE" fill-opacity="0.84"/>
<path d="M2054 851L2074 933L2065.5 926L2059 936.5L2048.5 921.5L2034.5 937.5L2054 851Z" fill="#FFFEFE" fill-opacity="0.84"/>
<path d="M1892 909L1916 993L1903 984L1896.5 994.5L1886 982.5L1868 998L1892 909Z" fill="#FFFEFE" fill-opacity="0.84"/>
<path d="M779 761L807 912L787.5 892.5L778.344 914.5L771 892.5L749.5 921.5L779 761Z" fill="#FFFEFE" fill-opacity="0.84"/>
<path d="M943 469L916 324.5L933.687 338L942.843 316L950.187 338L973.187 307.5L943 469Z" fill="#FFFEFE" fill-opacity="0.84"/>
<path d="M1565.97 443.167L1539 307.5L1555.66 311.667L1564.81 289.667L1572.16 311.667L1596 291.5L1565.97 443.167Z" fill="#FFFEFE" fill-opacity="0.84"/>
<path d="M1731 796L1752 901L1740.14 881.237L1730.5 900.5L1722.87 881.237L1707 915.5L1731 796Z" fill="#FFFEFE" fill-opacity="0.84"/>
<path d="M410.013 633.444C410.753 632.704 411.504 631.953 412.266 631.191C413.028 630.408 413.768 629.593 414.488 628.747C415.207 627.901 415.874 627.023 416.487 626.113C417.122 625.182 417.683 624.198 418.169 623.161C418.275 622.928 418.423 622.759 418.614 622.653C418.804 622.526 419.016 622.463 419.249 622.463C419.608 622.463 419.894 622.59 420.105 622.844C420.338 623.098 420.455 623.383 420.455 623.701C420.455 623.87 420.423 624.029 420.359 624.177C419.703 625.552 418.952 626.811 418.106 627.954C417.26 629.096 416.371 630.186 415.44 631.223C414.509 632.238 413.567 633.222 412.615 634.174C411.663 635.148 410.753 636.121 409.886 637.094C409.801 638.554 409.801 640.014 409.886 641.474C409.97 642.955 410.013 644.521 410.013 646.171C410.013 647.526 409.97 648.88 409.886 650.234C409.801 651.588 409.664 652.879 409.473 654.106C409.283 655.354 409.018 656.518 408.68 657.597C408.362 658.676 407.95 659.607 407.442 660.39C406.934 661.194 406.342 661.818 405.665 662.263C404.987 662.728 404.194 662.961 403.284 662.961C401.782 662.961 400.629 662.443 399.825 661.406C399.021 660.369 398.619 658.92 398.619 657.058C398.619 656.042 398.724 654.952 398.936 653.789C399.169 652.625 399.486 651.419 399.888 650.17C400.29 648.943 400.766 647.695 401.316 646.425C401.888 645.156 402.501 643.918 403.157 642.712C403.813 641.506 404.511 640.353 405.252 639.252C405.993 638.173 406.744 637.189 407.505 636.301C407.548 635.285 407.59 634.227 407.632 633.127C407.696 632.048 407.759 631.043 407.823 630.112C407.273 631.085 406.585 631.868 405.76 632.46C404.956 633.053 404.067 633.349 403.094 633.349C401.486 633.349 400.227 632.81 399.317 631.73C398.407 630.651 397.952 629.17 397.952 627.287C397.952 625.912 398.079 624.663 398.333 623.542C398.608 622.399 398.894 621.426 399.19 620.622C399.507 619.797 399.793 619.173 400.047 618.75C400.301 618.305 400.428 618.094 400.428 618.115C400.66 617.755 400.988 617.575 401.412 617.575C401.771 617.575 402.057 617.702 402.269 617.956C402.501 618.189 402.618 618.464 402.618 618.781C402.618 619.014 402.554 619.226 402.427 619.416C402.448 619.395 402.343 619.575 402.11 619.956C401.898 620.315 401.655 620.844 401.38 621.542C401.126 622.241 400.883 623.076 400.65 624.05C400.438 625.023 400.333 626.092 400.333 627.255C400.333 628.419 400.544 629.329 400.967 629.985C401.39 630.641 402.078 630.969 403.03 630.969C404.236 630.969 405.326 630.08 406.299 628.303C407.273 626.504 408.098 623.902 408.775 620.495C408.817 620.22 408.944 619.998 409.156 619.829C409.367 619.638 409.621 619.543 409.917 619.543C410.256 619.543 410.542 619.659 410.774 619.892C411.007 620.125 411.124 620.41 411.124 620.749C411.124 620.812 411.081 621.193 410.997 621.892C410.912 622.569 410.806 623.479 410.679 624.621C410.573 625.764 410.457 627.097 410.33 628.62C410.203 630.122 410.097 631.73 410.013 633.444ZM407.474 640.173C406.521 641.548 405.643 642.998 404.839 644.521C404.056 646.044 403.379 647.557 402.808 649.06C402.237 650.562 401.792 652.001 401.475 653.376C401.158 654.751 400.999 655.979 400.999 657.058C400.999 658.158 401.179 659.015 401.539 659.628C401.898 660.263 402.47 660.581 403.252 660.581C403.951 660.581 404.564 660.231 405.093 659.533C405.643 658.856 406.098 657.883 406.458 656.613C406.839 655.344 407.125 653.799 407.315 651.979C407.505 650.181 407.601 648.16 407.601 645.917C407.601 645.008 407.579 644.087 407.537 643.156C407.516 642.225 407.495 641.231 407.474 640.173ZM436.083 629.509C435.554 629.509 435.088 629.466 434.686 629.382C434.369 630.017 433.988 630.609 433.543 631.159C433.099 631.688 432.581 632.154 431.988 632.556C431.417 632.958 430.772 633.275 430.052 633.508C429.333 633.741 428.55 633.857 427.704 633.857C426.709 633.857 425.799 633.677 424.974 633.317C424.149 632.979 423.43 632.503 422.816 631.889C422.202 631.254 421.726 630.503 421.388 629.636C421.049 628.747 420.88 627.774 420.88 626.716C420.88 625.362 421.123 624.187 421.61 623.193C422.097 622.177 422.657 621.341 423.292 620.686C423.927 620.008 424.562 619.511 425.196 619.194C425.831 618.855 426.307 618.686 426.625 618.686C426.984 618.686 427.249 618.781 427.418 618.972C427.608 619.162 427.704 619.416 427.704 619.733C427.704 620.093 427.587 620.368 427.354 620.559C427.143 620.728 426.868 620.897 426.529 621.066C426.191 621.236 425.831 621.479 425.45 621.796C425.069 622.093 424.71 622.473 424.371 622.939C424.054 623.404 423.789 623.955 423.578 624.589C423.366 625.224 423.26 625.933 423.26 626.716C423.26 627.414 423.366 628.07 423.578 628.684C423.789 629.276 424.096 629.794 424.498 630.239C424.9 630.662 425.376 631 425.926 631.254C426.476 631.487 427.09 631.604 427.767 631.604C428.973 631.604 429.968 631.328 430.75 630.778C431.555 630.207 432.168 629.488 432.591 628.62C431.343 627.964 430.317 627.033 429.513 625.827C428.709 624.621 428.307 623.267 428.307 621.765C428.307 620.559 428.592 619.575 429.164 618.813C429.756 618.051 430.528 617.67 431.48 617.67C432.052 617.67 432.591 617.808 433.099 618.083C433.607 618.358 434.051 618.792 434.432 619.384C434.834 619.977 435.152 620.738 435.384 621.669C435.617 622.6 435.733 623.711 435.733 625.002C435.733 625.679 435.649 626.388 435.479 627.128C435.606 627.15 435.733 627.16 435.86 627.16C435.987 627.16 436.125 627.16 436.273 627.16C436.992 627.16 437.638 627.076 438.209 626.906C438.78 626.737 439.299 626.483 439.764 626.145C440.23 625.806 440.642 625.372 441.002 624.843C441.383 624.314 441.743 623.701 442.081 623.002C442.145 622.875 442.282 622.759 442.494 622.653C442.705 622.526 442.917 622.463 443.128 622.463C443.403 622.463 443.657 622.579 443.89 622.812C444.144 623.024 444.271 623.309 444.271 623.669C444.271 623.838 444.229 624.029 444.144 624.24C444.059 624.431 443.975 624.611 443.89 624.78C443.53 625.415 443.107 626.028 442.621 626.621C442.155 627.192 441.594 627.7 440.938 628.144C440.304 628.567 439.584 628.906 438.78 629.16C437.976 629.414 437.077 629.53 436.083 629.509ZM430.655 621.511C430.655 621.913 430.708 622.336 430.814 622.78C430.92 623.225 431.078 623.669 431.29 624.113C431.523 624.536 431.798 624.949 432.115 625.351C432.454 625.732 432.845 626.06 433.29 626.335C433.353 625.891 433.385 625.457 433.385 625.034C433.385 624.462 433.342 623.881 433.258 623.288C433.173 622.696 433.046 622.156 432.877 621.669C432.729 621.162 432.538 620.76 432.306 620.463C432.073 620.146 431.798 619.987 431.48 619.987C431.354 619.987 431.184 620.083 430.973 620.273C430.761 620.463 430.655 620.876 430.655 621.511ZM455.805 629.445C455.064 630.651 454.197 631.604 453.202 632.302C452.229 633 451.245 633.349 450.25 633.349C449.446 633.349 448.727 633.201 448.092 632.905C447.458 632.609 446.907 632.196 446.442 631.667C445.976 631.117 445.617 630.461 445.363 629.699C445.13 628.938 445.014 628.081 445.014 627.128C445.014 625.647 445.151 624.335 445.426 623.193C445.722 622.05 446.04 621.098 446.378 620.336C446.717 619.554 447.034 618.961 447.331 618.559C447.627 618.157 447.775 617.956 447.775 617.956C447.881 617.829 448.008 617.734 448.156 617.67C448.325 617.607 448.494 617.575 448.664 617.575C449.002 617.575 449.277 617.702 449.489 617.956C449.722 618.189 449.838 618.464 449.838 618.781C449.838 618.908 449.806 619.035 449.743 619.162C449.7 619.289 449.647 619.416 449.584 619.543C449.478 619.733 449.309 620.03 449.076 620.432C448.843 620.812 448.6 621.32 448.346 621.955C448.092 622.59 447.87 623.341 447.68 624.208C447.489 625.055 447.394 626.028 447.394 627.128C447.394 628.377 447.637 629.329 448.124 629.985C448.632 630.62 449.341 630.937 450.25 630.937C450.631 630.937 451.065 630.821 451.552 630.588C452.06 630.334 452.546 629.953 453.012 629.445C453.498 628.938 453.922 628.292 454.281 627.509C454.641 626.726 454.874 625.806 454.979 624.748L455.456 619.289C455.498 618.972 455.635 618.707 455.868 618.496C456.101 618.284 456.376 618.178 456.693 618.178C457.053 618.178 457.339 618.316 457.55 618.591C457.762 618.845 457.868 619.141 457.868 619.479L457.455 624.748C457.413 625.192 457.423 625.774 457.487 626.494C457.571 627.213 457.73 627.922 457.963 628.62C458.196 629.318 458.545 629.921 459.01 630.429C459.476 630.916 460.089 631.159 460.851 631.159C461.401 631.159 461.941 631.022 462.47 630.747C462.999 630.45 463.507 630.069 463.993 629.604C464.48 629.139 464.924 628.62 465.326 628.049C465.749 627.456 466.13 626.864 466.469 626.271C466.828 625.679 467.135 625.118 467.389 624.589C467.643 624.039 467.855 623.574 468.024 623.193C468.13 622.96 468.278 622.78 468.468 622.653C468.659 622.526 468.87 622.463 469.103 622.463C469.484 622.463 469.78 622.59 469.992 622.844C470.203 623.098 470.309 623.373 470.309 623.669C470.309 623.838 470.277 623.997 470.214 624.145C470.129 624.314 469.96 624.674 469.706 625.224C469.473 625.753 469.156 626.367 468.754 627.065C468.373 627.742 467.908 628.461 467.357 629.223C466.807 629.985 466.194 630.694 465.517 631.35C464.84 631.984 464.099 632.513 463.295 632.937C462.512 633.339 461.666 633.54 460.756 633.54C459.507 633.54 458.471 633.19 457.646 632.492C456.82 631.773 456.207 630.757 455.805 629.445ZM474.638 619.956C474.554 620.527 474.448 621.066 474.321 621.574C474.194 622.061 474.067 622.495 473.94 622.875C473.834 623.235 473.739 623.531 473.654 623.764C473.57 623.997 473.517 624.124 473.496 624.145C473.284 624.632 472.914 624.875 472.385 624.875C472.089 624.875 471.813 624.769 471.56 624.558C471.306 624.325 471.179 624.039 471.179 623.701C471.179 623.574 471.2 623.479 471.242 623.415C471.285 623.352 471.348 623.225 471.433 623.034C471.517 622.844 471.623 622.526 471.75 622.082C471.877 621.638 472.036 620.95 472.226 620.019C471.866 620.019 471.496 620.008 471.115 619.987C470.734 619.966 470.385 619.892 470.068 619.765C469.729 619.638 469.454 619.437 469.243 619.162C469.031 618.887 468.925 618.506 468.925 618.02C468.925 617.66 469.031 617.173 469.243 616.56C469.433 615.946 469.698 615.343 470.036 614.75C470.375 614.158 470.756 613.65 471.179 613.227C471.602 612.783 472.025 612.561 472.448 612.561C472.935 612.561 473.326 612.74 473.623 613.1C473.94 613.46 474.183 613.904 474.353 614.433C474.522 614.941 474.638 615.48 474.702 616.052C474.786 616.623 474.829 617.12 474.829 617.543C475.188 617.543 475.537 617.543 475.876 617.543C476.236 617.522 476.574 617.512 476.892 617.512C478.098 617.512 479.018 617.776 479.653 618.305C480.288 618.834 480.605 619.702 480.605 620.908C480.605 621.394 480.573 621.902 480.51 622.431C480.446 622.96 480.372 623.51 480.288 624.082C480.203 624.632 480.129 625.182 480.065 625.732C480.002 626.282 479.97 626.822 479.97 627.351C479.97 628.112 480.076 628.747 480.288 629.255C480.499 629.742 480.764 630.133 481.081 630.429C481.398 630.725 481.737 630.937 482.097 631.064C482.456 631.17 482.784 631.223 483.081 631.223C483.99 631.223 484.847 630.926 485.651 630.334C486.455 629.742 487.196 629.033 487.873 628.208C488.55 627.361 489.153 626.472 489.682 625.542C490.232 624.611 490.687 623.796 491.047 623.098C491.153 622.907 491.301 622.759 491.491 622.653C491.682 622.548 491.883 622.495 492.094 622.495C492.475 622.495 492.771 622.622 492.983 622.875C493.194 623.108 493.3 623.373 493.3 623.669C493.3 623.881 493.258 624.071 493.173 624.24C492.687 625.108 492.115 626.092 491.459 627.192C490.825 628.271 490.095 629.287 489.27 630.239C488.444 631.191 487.513 631.995 486.477 632.651C485.461 633.307 484.34 633.635 483.112 633.635C482.351 633.635 481.631 633.487 480.954 633.19C480.277 632.915 479.685 632.513 479.177 631.984C478.69 631.434 478.299 630.768 478.002 629.985C477.706 629.181 477.558 628.282 477.558 627.287C477.558 626.229 477.664 625.182 477.875 624.145C478.087 623.087 478.193 622.082 478.193 621.13C478.193 620.728 478.098 620.432 477.907 620.241C477.738 620.03 477.347 619.924 476.733 619.924C476.437 619.924 476.109 619.924 475.749 619.924C475.41 619.924 475.04 619.934 474.638 619.956ZM472.512 617.607C472.512 617.459 472.501 617.268 472.48 617.036C472.48 616.782 472.459 616.538 472.417 616.306C472.395 616.073 472.353 615.872 472.29 615.703C472.247 615.533 472.194 615.449 472.131 615.449C472.067 615.449 471.983 615.533 471.877 615.703C471.792 615.851 471.697 616.041 471.591 616.274C471.486 616.486 471.39 616.718 471.306 616.972C471.221 617.226 471.158 617.438 471.115 617.607H472.512ZM537.537 601.23C537.537 601.569 537.421 601.844 537.188 602.055C536.955 602.246 536.67 602.341 536.331 602.341H520.24V602.69C520.24 603.981 520.145 605.356 519.954 606.816C519.764 608.276 519.499 609.736 519.161 611.196C518.843 612.635 518.473 614.042 518.05 615.417C517.648 616.792 517.225 618.062 516.78 619.226C516.357 620.389 515.934 621.405 515.511 622.272C515.088 623.119 514.707 623.754 514.368 624.177C514.643 625.15 514.971 626.06 515.352 626.906C515.733 627.731 516.156 628.461 516.622 629.096C517.108 629.71 517.627 630.196 518.177 630.556C518.727 630.916 519.319 631.096 519.954 631.096C520.695 631.096 521.425 630.789 522.144 630.175C522.885 629.541 523.562 628.8 524.175 627.954C524.81 627.086 525.36 626.219 525.826 625.351C526.312 624.462 526.661 623.754 526.873 623.225C527.085 622.717 527.455 622.463 527.984 622.463C528.344 622.463 528.629 622.59 528.841 622.844C529.074 623.098 529.19 623.373 529.19 623.669C529.19 623.817 529.158 623.965 529.095 624.113C529.031 624.261 528.873 624.6 528.619 625.129C528.386 625.658 528.069 626.271 527.667 626.97C527.286 627.668 526.831 628.409 526.302 629.191C525.794 629.953 525.212 630.651 524.556 631.286C523.921 631.921 523.234 632.45 522.493 632.873C521.753 633.296 520.97 633.508 520.145 633.508C518.685 633.508 517.373 633.032 516.209 632.08C515.045 631.127 514.051 629.794 513.226 628.081C512.422 626.367 511.808 624.335 511.385 621.987C510.962 619.638 510.75 617.067 510.75 614.274C510.75 613.576 510.761 612.762 510.782 611.831C510.803 610.878 510.845 609.884 510.909 608.847C510.972 607.789 511.067 606.71 511.194 605.61C511.321 604.488 511.491 603.399 511.702 602.341H500.308C499.97 602.341 499.684 602.246 499.451 602.055C499.218 601.844 499.102 601.569 499.102 601.23C499.102 600.891 499.218 600.627 499.451 600.437C499.684 600.225 499.97 600.119 500.308 600.119H512.242C512.453 599.357 512.697 598.659 512.972 598.024C513.268 597.39 513.596 596.84 513.956 596.374C514.336 595.909 514.749 595.549 515.193 595.295C515.659 595.02 516.167 594.882 516.717 594.882C517.246 594.882 517.701 595.02 518.082 595.295C518.484 595.549 518.822 595.909 519.097 596.374C519.372 596.84 519.584 597.39 519.732 598.024C519.901 598.659 520.028 599.357 520.113 600.119H536.331C536.67 600.119 536.955 600.225 537.188 600.437C537.421 600.627 537.537 600.891 537.537 601.23ZM513.638 621.003C514.273 619.606 514.844 618.104 515.352 616.496C515.881 614.867 516.325 613.227 516.685 611.577C517.066 609.926 517.352 608.308 517.542 606.721C517.754 605.134 517.859 603.674 517.859 602.341H514.114C513.818 603.653 513.575 605.282 513.384 607.229C513.215 609.154 513.13 611.503 513.13 614.274C513.13 615.819 513.173 617.12 513.257 618.178C513.342 619.215 513.469 620.157 513.638 621.003ZM516.59 597.263C516.399 597.263 516.124 597.474 515.765 597.897C515.405 598.299 515.045 599.04 514.686 600.119H517.732C517.627 599.23 517.468 598.532 517.256 598.024C517.066 597.517 516.844 597.263 516.59 597.263ZM514.146 623.288V623.32V623.288ZM540.787 629.445C540.047 630.651 539.179 631.604 538.185 632.302C537.211 633 536.227 633.349 535.233 633.349C534.429 633.349 533.709 633.201 533.075 632.905C532.44 632.609 531.89 632.196 531.424 631.667C530.959 631.117 530.599 630.461 530.345 629.699C530.112 628.938 529.996 628.081 529.996 627.128C529.996 625.647 530.134 624.335 530.409 623.193C530.705 622.05 531.022 621.098 531.361 620.336C531.699 619.554 532.017 618.961 532.313 618.559C532.609 618.157 532.757 617.956 532.757 617.956C532.863 617.829 532.99 617.734 533.138 617.67C533.307 617.607 533.477 617.575 533.646 617.575C533.985 617.575 534.26 617.702 534.471 617.956C534.704 618.189 534.82 618.464 534.82 618.781C534.82 618.908 534.789 619.035 534.725 619.162C534.683 619.289 534.63 619.416 534.566 619.543C534.461 619.733 534.291 620.03 534.059 620.432C533.826 620.812 533.583 621.32 533.329 621.955C533.075 622.59 532.853 623.341 532.662 624.208C532.472 625.055 532.376 626.028 532.376 627.128C532.376 628.377 532.62 629.329 533.106 629.985C533.614 630.62 534.323 630.937 535.233 630.937C535.614 630.937 536.048 630.821 536.534 630.588C537.042 630.334 537.529 629.953 537.994 629.445C538.481 628.938 538.904 628.292 539.264 627.509C539.623 626.726 539.856 625.806 539.962 624.748L540.438 619.289C540.48 618.972 540.618 618.707 540.851 618.496C541.083 618.284 541.358 618.178 541.676 618.178C542.035 618.178 542.321 618.316 542.533 618.591C542.744 618.845 542.85 619.141 542.85 619.479L542.438 624.748C542.395 625.192 542.406 625.774 542.469 626.494C542.554 627.213 542.713 627.922 542.945 628.62C543.178 629.318 543.527 629.921 543.993 630.429C544.458 630.916 545.072 631.159 545.833 631.159C546.384 631.159 546.923 631.022 547.452 630.747C547.981 630.45 548.489 630.069 548.976 629.604C549.462 629.139 549.907 628.62 550.309 628.049C550.732 627.456 551.113 626.864 551.451 626.271C551.811 625.679 552.118 625.118 552.372 624.589C552.625 624.039 552.837 623.574 553.006 623.193C553.112 622.96 553.26 622.78 553.451 622.653C553.641 622.526 553.853 622.463 554.085 622.463C554.466 622.463 554.763 622.59 554.974 622.844C555.186 623.098 555.292 623.373 555.292 623.669C555.292 623.838 555.26 623.997 555.196 624.145C555.112 624.314 554.942 624.674 554.688 625.224C554.456 625.753 554.138 626.367 553.736 627.065C553.355 627.742 552.89 628.461 552.34 629.223C551.79 629.985 551.176 630.694 550.499 631.35C549.822 631.984 549.081 632.513 548.277 632.937C547.494 633.339 546.648 633.54 545.738 633.54C544.49 633.54 543.453 633.19 542.628 632.492C541.803 631.773 541.189 630.757 540.787 629.445ZM559.621 619.956C559.536 620.527 559.43 621.066 559.303 621.574C559.176 622.061 559.049 622.495 558.922 622.875C558.817 623.235 558.721 623.531 558.637 623.764C558.552 623.997 558.499 624.124 558.478 624.145C558.266 624.632 557.896 624.875 557.367 624.875C557.071 624.875 556.796 624.769 556.542 624.558C556.288 624.325 556.161 624.039 556.161 623.701C556.161 623.574 556.182 623.479 556.225 623.415C556.267 623.352 556.33 623.225 556.415 623.034C556.5 622.844 556.605 622.526 556.732 622.082C556.859 621.638 557.018 620.95 557.208 620.019C556.849 620.019 556.479 620.008 556.098 619.987C555.717 619.966 555.368 619.892 555.05 619.765C554.712 619.638 554.437 619.437 554.225 619.162C554.014 618.887 553.908 618.506 553.908 618.02C553.908 617.66 554.014 617.173 554.225 616.56C554.416 615.946 554.68 615.343 555.019 614.75C555.357 614.158 555.738 613.65 556.161 613.227C556.584 612.783 557.007 612.561 557.431 612.561C557.917 612.561 558.309 612.74 558.605 613.1C558.922 613.46 559.166 613.904 559.335 614.433C559.504 614.941 559.621 615.48 559.684 616.052C559.769 616.623 559.811 617.12 559.811 617.543C560.171 617.543 560.52 617.543 560.858 617.543C561.218 617.522 561.557 617.512 561.874 617.512C563.08 617.512 564 617.776 564.635 618.305C565.27 618.834 565.587 619.702 565.587 620.908C565.587 621.394 565.556 621.902 565.492 622.431C565.429 622.96 565.355 623.51 565.27 624.082C565.185 624.632 565.111 625.182 565.048 625.732C564.984 626.282 564.953 626.822 564.953 627.351C564.953 628.112 565.058 628.747 565.27 629.255C565.482 629.742 565.746 630.133 566.063 630.429C566.381 630.725 566.719 630.937 567.079 631.064C567.439 631.17 567.767 631.223 568.063 631.223C568.973 631.223 569.83 630.926 570.634 630.334C571.438 629.742 572.178 629.033 572.855 628.208C573.533 627.361 574.136 626.472 574.665 625.542C575.215 624.611 575.67 623.796 576.029 623.098C576.135 622.907 576.283 622.759 576.474 622.653C576.664 622.548 576.865 622.495 577.077 622.495C577.458 622.495 577.754 622.622 577.965 622.875C578.177 623.108 578.283 623.373 578.283 623.669C578.283 623.881 578.24 624.071 578.156 624.24C577.669 625.108 577.098 626.092 576.442 627.192C575.807 628.271 575.077 629.287 574.252 630.239C573.427 631.191 572.496 631.995 571.459 632.651C570.443 633.307 569.322 633.635 568.095 633.635C567.333 633.635 566.614 633.487 565.937 633.19C565.259 632.915 564.667 632.513 564.159 631.984C563.673 631.434 563.281 630.768 562.985 629.985C562.689 629.181 562.541 628.282 562.541 627.287C562.541 626.229 562.646 625.182 562.858 624.145C563.069 623.087 563.175 622.082 563.175 621.13C563.175 620.728 563.08 620.432 562.89 620.241C562.72 620.03 562.329 619.924 561.715 619.924C561.419 619.924 561.091 619.924 560.731 619.924C560.393 619.924 560.023 619.934 559.621 619.956ZM557.494 617.607C557.494 617.459 557.484 617.268 557.462 617.036C557.462 616.782 557.441 616.538 557.399 616.306C557.378 616.073 557.335 615.872 557.272 615.703C557.23 615.533 557.177 615.449 557.113 615.449C557.05 615.449 556.965 615.533 556.859 615.703C556.775 615.851 556.68 616.041 556.574 616.274C556.468 616.486 556.373 616.718 556.288 616.972C556.203 617.226 556.14 617.438 556.098 617.607H557.494ZM586.325 630.144C586.664 629.445 587.055 628.684 587.5 627.858C587.944 627.012 588.42 626.166 588.928 625.319C589.436 624.452 589.965 623.595 590.515 622.749C591.086 621.902 591.678 621.098 592.292 620.336C592.906 619.596 593.519 619.067 594.133 618.75C594.768 618.411 595.36 618.242 595.91 618.242C597.01 618.242 597.825 618.644 598.354 619.448C598.883 620.252 599.147 621.246 599.147 622.431C599.147 622.706 599.126 623.045 599.084 623.447C599.063 623.828 599.031 624.24 598.989 624.685C598.968 625.129 598.936 625.584 598.894 626.049C598.872 626.494 598.862 626.917 598.862 627.319C598.862 627.827 598.883 628.313 598.925 628.779C598.989 629.244 599.095 629.657 599.243 630.017C599.391 630.355 599.602 630.63 599.877 630.842C600.153 631.032 600.512 631.127 600.957 631.127C601.761 631.127 602.543 630.821 603.305 630.207C604.067 629.572 604.765 628.832 605.4 627.985C606.056 627.118 606.617 626.24 607.082 625.351C607.569 624.462 607.928 623.743 608.161 623.193C608.267 622.96 608.415 622.78 608.605 622.653C608.817 622.526 609.039 622.463 609.272 622.463C609.632 622.463 609.917 622.6 610.129 622.875C610.362 623.129 610.478 623.404 610.478 623.701C610.478 623.849 610.446 623.997 610.383 624.145C610.298 624.314 610.129 624.663 609.875 625.192C609.621 625.721 609.283 626.335 608.859 627.033C608.457 627.71 607.981 628.44 607.431 629.223C606.881 629.985 606.267 630.683 605.59 631.318C604.934 631.953 604.215 632.482 603.432 632.905C602.67 633.328 601.866 633.54 601.02 633.54C600.068 633.54 599.296 633.36 598.703 633C598.111 632.619 597.645 632.132 597.307 631.54C596.968 630.926 596.735 630.26 596.608 629.541C596.503 628.8 596.45 628.059 596.45 627.319C596.45 627.001 596.46 626.642 596.481 626.24C596.524 625.838 596.566 625.415 596.608 624.97C596.672 624.526 596.714 624.082 596.735 623.637C596.778 623.193 596.799 622.77 596.799 622.368C596.799 621.691 596.693 621.236 596.481 621.003C596.27 620.749 596.079 620.622 595.91 620.622C595.572 620.622 595.18 620.823 594.736 621.225C594.313 621.606 593.858 622.114 593.371 622.749C592.906 623.383 592.419 624.103 591.911 624.907C591.424 625.69 590.959 626.472 590.515 627.255C590.091 628.038 589.689 628.789 589.309 629.509C588.949 630.207 588.663 630.789 588.452 631.254C588.028 632.143 587.605 632.736 587.182 633.032C586.759 633.349 586.325 633.508 585.881 633.508C585.267 633.508 584.77 633.328 584.389 632.968C584.029 632.587 583.85 632.058 583.85 631.381C583.85 631.233 583.871 630.948 583.913 630.524C583.955 630.08 584.008 629.562 584.072 628.969C584.135 628.356 584.199 627.7 584.262 627.001C584.326 626.303 584.389 625.616 584.453 624.938C584.516 624.24 584.569 623.595 584.611 623.002C584.654 622.41 584.675 621.913 584.675 621.511C584.675 620.982 584.654 620.474 584.611 619.987C584.569 619.501 584.484 619.204 584.357 619.099C584.167 619.162 583.828 619.564 583.342 620.305C582.855 621.024 582.231 622.304 581.469 624.145C581.363 624.378 581.205 624.558 580.993 624.685C580.782 624.812 580.559 624.875 580.327 624.875C579.967 624.875 579.681 624.759 579.47 624.526C579.258 624.272 579.152 623.986 579.152 623.669C579.152 623.521 579.184 623.362 579.248 623.193C580.2 620.929 581.088 619.268 581.914 618.21C582.76 617.131 583.596 616.591 584.421 616.591C584.908 616.591 585.32 616.718 585.659 616.972C585.997 617.205 586.262 617.522 586.452 617.924C586.664 618.326 586.812 618.771 586.896 619.257C587.002 619.744 587.055 620.241 587.055 620.749C587.055 621.13 587.023 621.722 586.96 622.526C586.918 623.33 586.854 624.198 586.77 625.129C586.685 626.039 586.6 626.949 586.516 627.858C586.452 628.768 586.389 629.53 586.325 630.144ZM635.354 632.08C635.354 632.566 635.185 632.968 634.847 633.286C634.529 633.624 634.127 633.793 633.641 633.793C633.154 633.793 632.741 633.624 632.403 633.286C632.085 632.968 631.927 632.566 631.927 632.08C631.927 631.614 632.085 631.223 632.403 630.905C632.741 630.567 633.154 630.397 633.641 630.397C634.127 630.397 634.529 630.567 634.847 630.905C635.185 631.223 635.354 631.614 635.354 632.08ZM650.284 632.08C650.284 632.566 650.115 632.968 649.776 633.286C649.459 633.624 649.057 633.793 648.57 633.793C648.084 633.793 647.671 633.624 647.333 633.286C647.015 632.968 646.856 632.566 646.856 632.08C646.856 631.614 647.015 631.223 647.333 630.905C647.671 630.567 648.084 630.397 648.57 630.397C649.057 630.397 649.459 630.567 649.776 630.905C650.115 631.223 650.284 631.614 650.284 632.08ZM665.214 632.08C665.214 632.566 665.045 632.968 664.706 633.286C664.389 633.624 663.987 633.793 663.5 633.793C663.013 633.793 662.601 633.624 662.262 633.286C661.945 632.968 661.786 632.566 661.786 632.08C661.786 631.614 661.945 631.223 662.262 630.905C662.601 630.567 663.013 630.397 663.5 630.397C663.987 630.397 664.389 630.567 664.706 630.905C665.045 631.223 665.214 631.614 665.214 632.08Z" fill="black" fill-opacity="0.47"/>
<path d="M713.649 583H671.042C668.061 580.185 672.205 576.333 674.386 577.296C675.186 574.037 676.495 573.085 678.24 572.259C681.148 570.884 684.929 573.518 684.929 573.518C684.929 573.518 688.167 568 693.909 568C702.452 568 705.361 574.852 705.361 574.852C705.361 574.852 712.522 572.519 714.812 579.324C715.601 581.667 713.649 583 713.649 583Z" fill="#F8F8F8"/>
<path d="M758.649 607H716.042C713.061 604.185 717.205 600.333 719.386 601.296C720.186 598.037 721.495 597.085 723.24 596.259C726.148 594.884 729.929 597.518 729.929 597.518C729.929 597.518 733.167 592 738.909 592C747.452 592 750.361 598.852 750.361 598.852C750.361 598.852 757.522 596.519 759.812 603.324C760.601 605.667 758.649 607 758.649 607Z" fill="#F8F8F8"/>
<path d="M359.649 614H317.042C314.061 611.185 318.205 607.333 320.386 608.296C321.186 605.037 322.495 604.085 324.24 603.259C327.148 601.884 330.929 604.518 330.929 604.518C330.929 604.518 334.167 599 339.909 599C348.452 599 351.361 605.852 351.361 605.852C351.361 605.852 358.522 603.519 360.812 610.324C361.601 612.667 359.649 614 359.649 614Z" fill="#F8F8F8"/>
<path d="M42 681L42 558C62.0001 562.413 85.0001 587.664 85 618C84.9999 648.336 62.0001 676.036 42 681Z" fill="#C4C4C4" fill-opacity="0.59"/>
</svg>