<svg width="1600" height="900" viewBox="0 0 1600 900" fill="none" xmlns="http://www.w3.org/2000/svg">
<path d="M3 3H1597V897H3V3Z" fill="#F6F6F6" stroke="black" stroke-width="6"/>
<rect x="747" y="3" width="106" height="894" fill="#D2DAFE" stroke="black" stroke-width="6"/>
<path d="M823 800V100C823 87.2975 812.703 77 800 77C787.297 77 777 87.2974 777 100V800C777 812.703 787.297 823 800 823C812.703 823 823 812.703 823 800Z" fill="white" stroke="black" stroke-width="6"/>
<path d="M256.104 897L312.5 823.911L368.896 897H256.104Z" fill="#FFFDFD" stroke="black" stroke-width="6"/>
<path d="M381.104 897L437.5 823.911L493.896 897H381.104Z" fill="#FFFDFD" stroke="black" stroke-width="6"/>
<path d="M506.104 897L562.5 823.911L618.896 897H506.104Z" fill="#FFFDFD" stroke="black" stroke-width="6"/>
<path d="M631.104 897L687.5 823.911L743.896 897H631.104Z" fill="#FFFDFD" stroke="black" stroke-width="6"/>
<path d="M6.10406 897L62.5 823.911L118.896 897H6.10406Z" fill="#FFFDFD" stroke="black" stroke-width="6"/>
<path d="M131.104 897L187.5 823.911L243.896 897H131.104Z" fill="#FFFDFD" stroke="black" stroke-width="6"/>
<path d="M1106.1 897L1162.5 823.911L1218.9 897H1106.1Z" fill="#FFFDFD" stroke="black" stroke-width="6"/>
<path d="M1231.1 897L1287.5 823.911L1343.9 897H1231.1Z" fill="#FFFDFD" stroke="black" stroke-width="6"/>
<path d="M1356.1 897L1412.5 823.911L1468.9 897H1356.1Z" fill="#FFFDFD" stroke="black" stroke-width="6"/>
<path d="M1481.1 897L1537.5 823.911L1593.9 897H1481.1Z" fill="#FFFDFD" stroke="black" stroke-width="6"/>
<path d="M856.104 897L912.5 823.911L968.896 897H856.104Z" fill="#FFFDFD" stroke="black" stroke-width="6"/>
<path d="M981.104 897L1037.5 823.911L1093.9 897H981.104Z" fill="#FFFDFD" stroke="black" stroke-width="6"/>
<path d="M1343.9 3.00001L1287.5 76.0891L1231.1 3.00001L1343.9 3.00001Z" fill="#FFFDFD" stroke="black" stroke-width="6"/>
<path d="M1218.9 3.00001L1162.5 76.0891L1106.1 3.00001L1218.9 3.00001Z" fill="#FFFDFD" stroke="black" stroke-width="6"/>
<path d="M1093.9 3.00001L1037.5 76.0891L981.104 3.00001L1093.9 3.00001Z" fill="#FFFDFD" stroke="black" stroke-width="6"/>
<path d="M968.896 3.00001L912.5 76.0891L856.104 3.00001L968.896 3.00001Z" fill="#FFFDFD" stroke="black" stroke-width="6"/>
<path d="M1593.9 3.00001L1537.5 76.0891L1481.1 3.00001L1593.9 3.00001Z" fill="#FFFDFD" stroke="black" stroke-width="6"/>
<path d="M1468.9 3.00001L1412.5 76.0891L1356.1 3.00001L1468.9 3.00001Z" fill="#FFFDFD" stroke="black" stroke-width="6"/>
<path d="M493.896 3.00001L437.5 76.0891L381.104 3.00001L493.896 3.00001Z" fill="#FFFDFD" stroke="black" stroke-width="6"/>
<path d="M368.896 3.00001L312.5 76.0891L256.104 3.00001L368.896 3.00001Z" fill="#FFFDFD" stroke="black" stroke-width="6"/>
<path d="M243.896 3.00001L187.5 76.0891L131.104 3.00001L243.896 3.00001Z" fill="#FFFDFD" stroke="black" stroke-width="6"/>
<path d="M118.896 3.00001L62.5 76.0891L6.10406 3.00001L118.896 3.00001Z" fill="#FFFDFD" stroke="black" stroke-width="6"/>
<path d="M743.896 3.00001L687.5 76.0891L631.104 3.00001L743.896 3.00001Z" fill="#FFFDFD" stroke="black" stroke-width="6"/>
<path d="M618.896 3.00001L562.5 76.0891L506.104 3.00001L618.896 3.00001Z" fill="#FFFDFD" stroke="black" stroke-width="6"/>
</svg>