<svg width="2177" height="1255" viewBox="0 0 2177 1255" fill="none" xmlns="http://www.w3.org/2000/svg">
<rect width="2177" height="1255" fill="#2F4159"/>
<path d="M1156.15 30.3223H2139.23V1210.01H1156.15V30.3223Z" fill="#D5E6E9"/>
<path d="M42 30.3223H1025.08V1210.01H42V30.3223Z" fill="#D5E6E9"/>
<rect x="1025" y="30" width="131" height="1180" fill="#2F4159"/>
<path d="M1090.71 31L1089 1211" stroke="#8CA9BC" stroke-opacity="0.57" stroke-width="42"/>
<path d="M1731 796L1814 1210H1648L1731 796Z" fill="#8CA9BC"/>
<path d="M1402 967L1484 1210H1320L1402 967Z" fill="#8CA9BC"/>
<path d="M943 925L1025 1210H861L943 925Z" fill="#8CA9BC"/>
<path d="M615.5 855L697 1210H534L615.5 855Z" fill="#8CA9BC"/>
<path d="M288 749L370 1210H206L288 749Z" fill="#8CA9BC"/>
<path d="M1565.92 443L1484 30H1647.85L1565.92 443Z" fill="#8CA9BC"/>
<path d="M1238 355L1156 30H1320L1238 355Z" fill="#8CA9BC"/>
<path d="M779 215L697 30L861 30L779 215Z" fill="#8CA9BC"/>
<path d="M452 471L370 30H534L452 471Z" fill="#8CA9BC"/>
<path d="M124 449L42 30H206L124 449Z" fill="#8CA9BC"/>
<path d="M1237 851L1323 1210H1156L1237 851Z" fill="#8CA9BC"/>
<path d="M2054 851L2140 1210H1973L2054 851Z" fill="#8CA9BC"/>
<path d="M1892 909L1978 1210H1811L1892 909Z" fill="#8CA9BC"/>
<path d="M1564.5 829L1648 1210H1481L1564.5 829Z" fill="#8CA9BC"/>
<path d="M779 761L861 1210H697L779 761Z" fill="#8CA9BC"/>
<path d="M452 936L534 1210H370L452 936Z" fill="#8CA9BC"/>
<path d="M124 825L206 1210H42L124 825Z" fill="#8CA9BC"/>
<path d="M1729.92 345L1648 30H1811.85L1729.92 345Z" fill="#8CA9BC"/>
<path d="M1401.92 223L1320 30.0001L1483.85 30.0001L1401.92 223Z" fill="#8CA9BC"/>
<path d="M943 469L861 30H1025L943 469Z" fill="#8CA9BC"/>
<path d="M615.5 291L534 30H697L615.5 291Z" fill="#8CA9BC"/>
<path d="M286 325L206 30H366L286 325Z" fill="#8CA9BC"/>
<path d="M1892.92 299L1811 30.0005H1974.85L1892.92 299Z" fill="#8CA9BC"/>
<path d="M2056.92 429L1975 30.0002H2138.85L2056.92 429Z" fill="#8CA9BC"/>
<path d="M1564.43 828.657L1592.93 958.657L1577 944L1568.5 961L1556 941L1536.93 954.157L1564.43 828.657Z" fill="#FFFEFE" fill-opacity="0.84"/>
<path d="M124 825.5L150 946.5L139.5 936.5L135 948L123.5 935L114 962L108 940.5L97.5 949L124 825.5Z" fill="#FFFEFE" fill-opacity="0.84"/>
<path d="M288.248 749L317.5 914.5L298 880L291.5 914.5L279 890L262 914.5V895.571L288.248 749Z" fill="#FFFEFE" fill-opacity="0.84"/>
<path d="M124 449L91.5 283L113.5 317.5L120 283L133 294L141 287L146.5 303L155 291L124 449Z" fill="#FFFEFE" fill-opacity="0.84"/>
<path d="M452 471L421 304L437 316L448.5 303L459 327L478 303L479.5 323L452 471Z" fill="#FFFEFE" fill-opacity="0.84"/>
<path d="M2057 430L2030 301.5L2045 319.5L2053.5 294.5L2063 319.5L2075 299L2081 316L2057 430Z" fill="#FFFEFE" fill-opacity="0.84"/>
<path d="M1237.22 851.337L1266.94 976.837L1248.94 965.5L1239.86 985.337L1229.73 965.5L1215.94 985.337L1211 965.5L1237.22 851.337Z" fill="#FFFEFE" fill-opacity="0.84"/>
<path d="M451.603 936L477.5 1018.6L473 1030.88L460.866 1018.6L450.344 1033L444.281 998.423L427 1018.6L451.603 936Z" fill="#FFFEFE" fill-opacity="0.84"/>
<path d="M615.5 291L588.5 204.5L594 195.118L606.134 207.402L616.656 193L625.5 214.5L641 209.5L615.5 291Z" fill="#FFFEFE" fill-opacity="0.84"/>
<path d="M1238 355L1216 268L1222 259L1230 275.5L1240.16 257L1245 268.5L1255.5 259L1259.5 270L1238 355Z" fill="#FFFEFE" fill-opacity="0.84"/>
<path d="M1730 345.098L1708.5 262.598L1713.5 252.098L1720.63 261.5L1731.16 247.098L1740 268.598L1750.5 266L1730 345.098Z" fill="#FFFEFE" fill-opacity="0.84"/>
<path d="M778.897 215L752 154.5L760.5 128.5L781 156L805.5 128.5L809.5 146.5L778.897 215Z" fill="#FFFEFE" fill-opacity="0.84"/>
<path d="M1892.9 298.977L1874.5 238.5L1875.5 217L1885.5 238.5L1893 220.5L1900.5 233.5L1912.5 221L1914.5 229L1892.9 298.977Z" fill="#FFFEFE" fill-opacity="0.84"/>
<path d="M1402 967L1430 1050L1423 1061.88L1410.87 1049.6L1400.34 1064L1394.28 1029.42L1376.5 1042.5L1402 967Z" fill="#FFFEFE" fill-opacity="0.84"/>
<path d="M943 926L962 991L957 1014L943 991L931 1006L924 991L943 926Z" fill="#FFFEFE" fill-opacity="0.84"/>
<path d="M286 325L268 258.5L272 237L286 260L298 245L304 258.5L286 325Z" fill="#FFFEFE" fill-opacity="0.84"/>
<path d="M1402 223L1377.5 165.5L1382 147.5L1392 155L1404.5 140.5L1411.5 163.5L1422.5 145.5L1426.5 165.5L1402 223Z" fill="#FFFEFE" fill-opacity="0.84"/>
<path d="M615.5 855L636 943.5L626.5 930L620 940.5L609.5 925.5L596 940.5L615.5 855Z" fill="#FFFEFE" fill-opacity="0.84"/>
<path d="M2054 851L2074 933L2065.5 926L2059 936.5L2048.5 921.5L2034.5 937.5L2054 851Z" fill="#FFFEFE" fill-opacity="0.84"/>
<path d="M1892 909L1916 993L1903 984L1896.5 994.5L1886 982.5L1868 998L1892 909Z" fill="#FFFEFE" fill-opacity="0.84"/>
<path d="M779 761L807 912L787.5 892.5L778.344 914.5L771 892.5L749.5 921.5L779 761Z" fill="#FFFEFE" fill-opacity="0.84"/>
<path d="M943 469L916 324.5L933.687 338L942.843 316L950.187 338L973.187 307.5L943 469Z" fill="#FFFEFE" fill-opacity="0.84"/>
<path d="M1565.97 443.167L1539 307.5L1555.66 311.667L1564.81 289.667L1572.16 311.667L1596 291.5L1565.97 443.167Z" fill="#FFFEFE" fill-opacity="0.84"/>
<path d="M713.649 583H671.042C668.061 580.185 672.205 576.333 674.386 577.296C675.186 574.037 676.495 573.085 678.24 572.259C681.148 570.884 684.929 573.518 684.929 573.518C684.929 573.518 688.167 568 693.909 568C702.452 568 705.361 574.852 705.361 574.852C705.361 574.852 712.522 572.519 714.812 579.324C715.601 581.667 713.649 583 713.649 583Z" fill="#F8F8F8"/>
<path d="M758.649 607H716.042C713.061 604.185 717.205 600.333 719.386 601.296C720.186 598.037 721.495 597.085 723.24 596.259C726.148 594.884 729.929 597.518 729.929 597.518C729.929 597.518 733.167 592 738.909 592C747.452 592 750.361 598.852 750.361 598.852C750.361 598.852 757.522 596.519 759.812 603.324C760.601 605.667 758.649 607 758.649 607Z" fill="#F8F8F8"/>
<path d="M359.649 614H317.042C314.061 611.185 318.205 607.333 320.386 608.296C321.186 605.037 322.495 604.085 324.24 603.259C327.148 601.884 330.929 604.518 330.929 604.518C330.929 604.518 334.167 599 339.909 599C348.452 599 351.361 605.852 351.361 605.852C351.361 605.852 358.522 603.519 360.812 610.324C361.601 612.667 359.649 614 359.649 614Z" fill="#F8F8F8"/>
<path d="M42 681L42 558C62.0001 562.413 85.0001 587.664 85 618C84.9999 648.336 62.0001 676.036 42 681Z" fill="#C4C4C4" fill-opacity="0.59"/>
</svg>