<svg width="128" height="128" viewBox="0 0 128 128" fill="none" xmlns="http://www.w3.org/2000/svg">
<rect x="3" y="3" width="121.507" height="121.507" rx="15" fill="white" stroke="black" stroke-width="6"/>
<circle cx="84.5" cy="84.5" r="17.5" fill="black"/>
<circle cx="84.5" cy="84.5" r="17.5" stroke="black"/>
<path d="M59 39.5C59 49.165 51.165 57 41.5 57C31.835 57 24 49.165 24 39.5C24 29.835 31.835 22 41.5 22C51.165 22 59 29.835 59 39.5Z" fill="black"/>
<path d="M59 39.5C59 49.165 51.165 57 41.5 57C31.835 57 24 49.165 24 39.5C24 29.835 31.835 22 41.5 22C51.165 22 59 29.835 59 39.5Z" stroke="black"/>
</svg>